# xmcd
#
# Track frame offsets: 
#        150
#        11613
#        23863
#        31778
#        46533
#        65659
#        89916
#        105444
#        109668
#        122148
#        136015
#        155766
#        184007
#        205819
#        227086
#
# Disc length: 3299 seconds
#
# Revision: 0
# Processed by: cddbd v1.5.2PL0 Copyright (c) Steve Scherf et al.
# Submitted via: ExactAudioCopy v0.95b4
#
DISCID=bf0ce10f
DTITLE=Uncle Tupelo - The Rare Essence Of Uncle Tupelo
DYEAR=1992
DGENRE=Alt. Rock
TTITLE0=Maggie's Farm
TTITLE1=I Found That Essence Rare
TTITLE2=Little Guitars
TTITLE3=Mike
TTITLE4=Dead Flowers
TTITLE5=A Hard Rain's Gonna Fall
TTITLE6=Mr. Soul
TTITLE7=Mecedes Benz
TTITLE8=Blue EYes
TTITLE9=Weary Blues
TTITLE10=Good Year For The Roses
TTITLE11=Down By The River
TTITLE12=Motion Pictures
TTITLE13=Immigrant Song - Ziggy Stardust
TTITLE14=Sing Me Back Home
EXTD=
EXTT0=
EXTT1=
EXTT2=
EXTT3=
EXTT4=
EXTT5=
EXTT6=
EXTT7=
EXTT8=
EXTT9=
EXTT10=
EXTT11=
EXTT12=
EXTT13=
EXTT14=
PLAYORDER=
